<svg xmlns="http://www.w3.org/2000/svg" viewBox="0 0 160 160" role="img" aria-labelledby="title desc">
  <title id="title">Logo Desa Batujajar Barat</title>
  <desc id="desc">Ilustrasi rumah desa di antara bukit dan matahari.</desc>
  <rect width="160" height="160" rx="36" fill="#183f35"/>
  <circle cx="112" cy="46" r="20" fill="#f2c577"/>
  <path d="M17 111c22-26 44-30 66-10 19-20 42-19 60 6v37H17z" fill="#6d9e73"/>
  <path d="M17 125c26-20 48-19 70-4 18-13 36-13 56 2v21H17z" fill="#477b62"/>
  <path d="m48 96 32-29 32 29v36H48z" fill="#f8f6ed"/>
  <path d="m41 96 39-37 39 37-7 7-32-30-32 30z" fill="#c96745"/>
  <path d="M73 132v-22h14v22" fill="#c96745"/>
  <circle cx="80" cy="101" r="3" fill="#183f35"/>
</svg>
